<?xml version="1.0" standalone="no"?>
<!DOCTYPE svg PUBLIC "-//W3C//DTD SVG 20010904//EN"
 "http://www.w3.org/TR/2001/REC-SVG-20010904/DTD/svg10.dtd">
<svg version="1.0" xmlns="http://www.w3.org/2000/svg"
 width="360.000000pt" height="360.000000pt" viewBox="0 0 360.000000 360.000000"
 preserveAspectRatio="xMidYMid meet">
<metadata>
Created by potrace 1.11, written by Peter Selinger 2001-2013
</metadata>
<g transform="translate(0.000000,360.000000) scale(0.100000,-0.100000)"
fill="#000000" stroke="none">
<path d="M825 2573 c1 -153 0 -283 -3 -290 -2 -8 -20 -4 -55 12 -66 30 -93 36
-192 40 -103 5 -161 -8 -260 -55 -233 -113 -352 -385 -277 -635 14 -46 60
-139 80 -162 60 -70 81 -91 112 -114 158 -118 389 -140 563 -53 131 66 224
173 275 316 l25 73 1 573 1 572 -135 0 -135 0 0 -277z m-155 -532 c63 -32 105
-75 131 -134 79 -185 -71 -394 -268 -374 -184 19 -297 207 -223 373 62 141
229 203 360 135z"/>
<path d="M1658 2324 c-279 -67 -462 -357 -400 -634 24 -107 68 -187 146 -266
164 -165 380 -206 603 -116 l52 21 -2 -32 -2 -32 135 0 135 0 0 295 c0 323 -6
376 -61 488 -33 70 -160 199 -224 229 -124 58 -266 75 -382 47z m209 -269
c151 -45 229 -226 158 -370 -68 -140 -241 -195 -371 -119 -161 95 -184 305
-46 432 72 67 160 86 259 57z"/>
<path d="M2908 2321 c-182 -46 -345 -212 -389 -396 -8 -35 -12 -214 -13 -612
l-1 -563 135 0 135 0 0 278 c-1 152 1 283 3 289 3 10 11 9 32 -2 140 -73 328
-70 478 6 228 114 342 370 277 619 -15 59 -63 159 -90 186 -5 6 -24 26 -40 45
-123 138 -334 198 -527 150z m216 -265 c152 -44 231 -222 163 -369 -41 -90
-147 -157 -247 -157 -138 0 -262 127 -262 268 0 183 169 309 346 258z"/>
</g>
</svg>
