<?xml version="1.0" standalone="no"?>
<!DOCTYPE svg PUBLIC "-//W3C//DTD SVG 20010904//EN"
 "http://www.w3.org/TR/2001/REC-SVG-20010904/DTD/svg10.dtd">
<svg version="1.0" xmlns="http://www.w3.org/2000/svg"
 width="595.000000pt" height="595.000000pt" viewBox="0 0 595.000000 595.000000"
 preserveAspectRatio="xMidYMid meet">
<metadata>
Created by potrace 1.11, written by Peter Selinger 2001-2013
</metadata>
<g transform="translate(0.000000,595.000000) scale(0.100000,-0.100000)"
fill="#000000" stroke="none">
<path d="M1350 4216 l0 -485 -73 34 c-135 62 -214 79 -377 78 -173 -1 -256
-19 -397 -89 -221 -109 -378 -290 -457 -526 -34 -100 -41 -153 -40 -293 1
-147 25 -250 88 -380 102 -207 269 -361 487 -445 74 -29 90 -33 194 -50 51 -9
240 -6 285 4 14 3 34 8 45 10 97 20 266 100 345 164 178 146 274 302 336 547
5 17 10 454 11 973 l4 942 -226 0 -225 0 0 -484z m-305 -841 c281 -98 394
-444 222 -683 -163 -228 -482 -255 -682 -58 -139 138 -173 336 -87 515 51 106
167 200 292 237 58 17 190 11 255 -11z"/>
<path d="M2790 3834 c-36 -8 -74 -16 -85 -18 -64 -13 -238 -97 -271 -131 -9
-8 -19 -15 -23 -15 -4 0 -41 -33 -82 -72 -242 -235 -327 -545 -245 -893 9 -37
34 -101 61 -156 117 -231 325 -400 580 -470 66 -18 106 -22 225 -22 165 0 251
18 378 78 l72 34 0 -59 0 -60 226 0 225 0 -4 518 c-2 284 -6 528 -10 542 -6
22 -19 77 -22 90 -11 57 -73 185 -129 264 -118 171 -311 305 -511 357 -104 26
-294 33 -385 13z m271 -449 c87 -25 140 -56 204 -120 249 -246 134 -660 -208
-751 -231 -61 -478 88 -542 327 -26 97 -11 223 37 319 30 60 131 159 193 190
102 49 219 62 316 35z"/>
<path d="M4870 3830 c-107 -23 -156 -41 -248 -90 -198 -107 -356 -296 -426
-508 -44 -132 -45 -154 -45 -1114 l-1 -918 225 0 225 0 0 484 0 485 73 -34
c67 -31 142 -56 212 -71 17 -3 80 -7 140 -9 97 -3 163 4 270 29 69 16 238 98
271 131 9 8 19 15 24 15 19 0 165 157 210 225 100 153 143 297 144 480 1 141
-6 186 -39 292 -93 290 -326 509 -630 593 -110 30 -288 35 -405 10z m300 -448
c112 -30 229 -124 277 -224 40 -84 45 -104 49 -184 15 -352 -333 -576 -656
-422 -63 30 -161 131 -192 198 -85 181 -52 378 87 515 120 120 271 160 435
117z"/>
</g>
</svg>
